<?xml version="1.0" encoding="UTF-8"?><svg id="b" xmlns="http://www.w3.org/2000/svg" xmlns:xlink="http://www.w3.org/1999/xlink" viewBox="0 0 487.4 157.07"><defs><style>.f{fill:url(#d);}.g{fill:#fe5733;}.h{fill:url(#e);}</style><linearGradient id="d" x1="-2236.66" y1="-217.57" x2="-2266.56" y2="-86.95" gradientTransform="translate(2388.7 241.41)" gradientUnits="userSpaceOnUse"><stop offset="0" stop-color="#ffef26"/><stop offset=".02" stop-color="#fee921"/><stop offset=".1" stop-color="#fdd70e"/><stop offset=".19" stop-color="#fdcb03"/><stop offset=".28" stop-color="#fdc800"/><stop offset=".67" stop-color="#f18f34"/><stop offset=".89" stop-color="#e95f32"/><stop offset="1" stop-color="#e3312d"/></linearGradient><linearGradient id="e" x1="-2334.67" y1="-217.6" x2="-2364.58" y2="-86.98" xlink:href="#d"/></defs><g id="c"><path class="g" d="M474.86,129.93c-6.53,2.02-13.47-1.6-17.11-7.49-3.43,2.12-7.09,3.23-11.52,3.2l-64.66-.32c-6.62-.03-12.53-5.38-12.96-11.99-.79-11.95-.14-23.58-.24-35.54-.02-2.27,2.01-4.11,3.44-4.32,2.17-.31,4.33,1.69,4.34,4.33l.15,34.73c.01,2.97,2.01,5.01,5.06,5.02l66.88.11c4.15,0,6.77-1.74,7.18-6.11.74-7.82,8.06-13.7,15.42-13.82,8.13-.13,15.52,6.1,16.41,13.33,1.08,8.76-3.25,16.04-12.39,18.87ZM467.43,106.17c-5.28,2.5-6.19,8.18-4.16,11.9,2.42,4.42,6.94,5.58,11.13,3.98,4.54-1.73,5.98-7.36,4.44-11.77-1.35-3.86-7.16-6.12-11.41-4.1Z"/><path class="g" d="M282.7,63.58l-.63-32.79c-.1-5.39-6.59-8.47-10.85-7.92-5.93.76-9.58,4.79-9.63,11.05l-.22,29.68c-.01,1.88-1.33,3.36-2.53,3.8-1.03.38-4.29-.92-4.28-2.2.07-12.13-1.02-24.13.33-36.38.77-7,9.1-12.84,14.96-13.29,7.29-.57,12.21,1.04,16.42,6.75,5.44-6.37,12.87-8.31,20.06-6.15s12.78,8.42,12.81,16.65l.12,30.69c0,2.09-2.13,3.74-3.58,3.95-1.82.25-4.21-1.59-4.23-3.94l-.25-31.96c-.04-5.13-6.84-9.29-11.12-8.73-6.19.81-9.91,5.65-9.84,11.79.12,10.12.33,19.79-.12,29.67-.08,1.78-2.37,2.97-3.45,3.19-1.49.3-3.92-1.29-3.97-3.83Z"/><path class="g" d="M486.82,67.98c-.13,9.66-9.68,15.6-17.18,16.63-9.62,1.32-18.24-3.43-22.34-12.08-1.14-2.4.52-4.87,2.37-5.05,2.35-.22,3.78.41,5.05,2.6,3.24,5.58,9.39,8.2,15.13,6.81s9.73-6.53,10.13-14.06c-6.25,4.56-13.75,6.28-21.48,3.19-15.34-6.12-13.72-23.55-12.99-36.96.11-2.05,2.07-3.37,3.24-3.53,1.98-.27,4.1,1.15,4.16,3.54l.47,19.51c.18,7.32,7.58,11.67,14.26,11.12s12.26-6.1,12.39-13.34l.34-18.69c.03-1.67,3.05-2.24,4.14-1.89s2.84,1.91,2.82,3.86l-.51,38.34Z"/><path class="g" d="M257.88,105.48c6.52-.85,2.14,11.96,11.51,12.04l23.01.19c4.39.04,8.13-4.16,7.52-7.58-.96-1.01-4.15-1.52-4.16-3.38,0-1.32.49-4.03,2.66-4.06l11.96-.17c11.81-.16,1.97,13.94,12.44,15.21,14.66,1.78,1.86-24.67,11-24.74,1.05,0,3.47.99,3.45,2.64-.21,12.74,2.99,25.28-8.2,28.66-5.19,1.57-9.91,1.39-14.2-1.7-3.74-2.69-5.35-7.33-5.48-13.1-2.51.62-1.74,2.81-2.37,4.77-2,6.24-8,10.93-14.7,11.15-7.44.24-14.44.33-21.9,0-8.67-.39-15.96-7.94-15.74-16.3.06-2.15,2.05-3.48,3.22-3.63Z"/><path class="g" d="M355.93,63.22c-8.44,6.06-18.82,5.76-26.24-.62s-10.22-17.62-4.84-26.6c1.62-2.7,4.74-5.55,7.4-7.49,6.35-4.62,15.51-3.82,22.1.21s10.07,11.36,9.98,19.89l-.16,14.86c-.02,2.07-1.85,3.69-3.52,3.93-1.77.25-3.01-.96-4.73-4.18ZM330.21,48.28c.65,7.71,7.87,12.14,14.52,11.38s11.38-5.99,11.71-12.56c.31-6.25-4.2-12.84-10.95-13.52-4.48-.45-8.65.34-11.62,3.07-2.7,2.48-4.08,6.61-3.66,11.64Z"/><path class="g" d="M417.27,33.66c.83,9.04-3.75,25.14,8.47,26.04,9.61.71,8.72-7.35,14.89-5.98,1.38.31,2.49,3.06,1.49,4.79-3.77,6.51-10.49,10.2-18.06,8.79-6.06-1.13-13.78-6.3-14.39-13.92-.98-12.21-.35-24.22-.16-36.54.03-1.71,5.2-1.78,6.02-.47,1.58,2.52,1.84,6.06,1.76,9.2l20.81.2c2.32.02,3.29,2.74,3.25,4.35-.15,5.53-17.59,2.85-24.08,3.54Z"/><path class="g" d="M387.77,33.39c-20.88-.07-4.88,31.99-15.14,34.03-6.21,1.24-4.38-20.29-4.06-24.58.52-6.82,5.33-12.9,10.3-15.4,6.6-3.32,14.43-2.47,19.55,1.82,4.7,3.94,8.13,8.92,7.55,14.92-.23,2.39-2.39,3.8-4.13,3.53-6.3-.97-.89-14.27-14.08-14.31Z"/><path class="g" d="M347.91,141.57c-2.67-.37-4.51-.66-4.7-2.53-.85-8.28,7.44-1.38,11.59-7.8,1.37-11.54-.1-22.92.64-34.5.13-2.06,1.85-3.66,3.5-4.01,1.41-.3,4,2.27,4.07,4.3.37,10.67.7,21.41-.12,31.97-.64,8.28-6.6,13.73-14.99,12.57Z"/><path class="g" d="M336.74,77.95c2.47-1.17,5.21-.27,6.39,2.23,1.02,2.16-.17,5.15-2.8,6.54-1.77.94-4.89.45-6.18-2.45-.85-1.91-.24-4.98,2.59-6.32Z"/><path class="g" d="M325.33,78.17c2.85-1.58,5.88-.39,6.78,2.04.83,2.25.28,4.54-2.32,6.31-1.78,1.21-4.01.44-5.59-1.48s-1.51-5.41,1.13-6.88Z"/><path class="g" d="M193.91,61.87c-1.14-2.76-1.82-5.48-2.02-8.17l-1.43-.7c-19.09-43.78-81.35-38.66-90.26,8.87l-2.24,2c-.93.7-1.6-.3-2-3-1.04-2.57-1.71-4.94-2-7.13-1.59-.72-4.12-3.55-2.15-4.95-2.45-1.17-4.14-2.22-2.84-5-2.43-.98-3.14-2.01-2.13-3.11-3.27-1.57-4.57-3.11-3.91-4.62-2.19-.06-5.46-1.68-4.05-4.01-12.35-6.31-23.89-9.63-37.81-10.41-.74,1.71-3.14,2.21-7.21,1.49.5,2.27-1.46,2.39-3.07,1.16.55,2.38-1.78,2.31-3.75,1.67.41,1.54-.6,2.16-3.03,1.88.67,1.39-.3,2.01-2.91,1.86,2.07,2.33-.05,2.93-2.29,1.58,1.05,2.51-1.72,4.62-3.8,2.58.92,2.5-.04,4.82-3.01,3.9,1.59,2.26-.27,3.75-2.68,3.38,2.03,2.11.39,3.77-2.11,2.97,2.36,1.87.53,3.68-2.03,3.72,2.17,1.8,1.68,2.76-1.08,2.17,2.01,1.67.64,4.88-1.95,4.87,2.6,1.23.92,3.1-1.01,4.13-.19,1.31-.5,1.37-.93.13C2.79,24.48,40.03-4.44,76.13.57c15.56,2.16,29.37,8.38,40.94,19.92,11.57-11.2,25.09-17.97,40.78-19.84,40-4.76,76.26,25.94,77.59,66.59.78,23.8.83,47.31-.09,70.94-.43,11.02-10.67,18.82-19.9,18.89s-20.14-6.63-20.22-17.38l-.49-70.72c-.02-2.7-1.27-4.82-.83-7.11Z"/><path class="f" d="M192.4,53.44c.67,2.37.34,3.1-.99,2.17-5.67-10.57-17.62-16.69-29.82-14.42-10.96,2.04-22.65,10.99-22.79,23.49l-.85,73.29c-.13,11.03-10.28,18.71-20,18.83s-20.1-6.64-20.15-17.36l-.34-71.84c.11-1.76.45-3.09,1-4,1.96-22.16,20.19-39.9,41.97-42.69,22.8-2.92,45.06,10.93,51.97,32.52Z"/><path class="h" d="M.22,75.81c-.27-.24.4-10.86.5-12.76C1.83,40.53,21.03,23.68,42.63,20.92c22.8-2.92,45.06,10.93,51.97,32.52.67,2.37.34,3.1-.99,2.17-5.67-10.57-17.62-16.69-29.82-14.42-10.96,2.04-22.65,10.99-22.79,23.49l-.85,73.29c-.13,11.03-10.28,18.71-20,18.83S.05,150.16,0,139.44"/></g></svg>