<?xml version="1.0" encoding="UTF-8"?><svg id="a" xmlns="http://www.w3.org/2000/svg" viewBox="0 0 457.61 657.58"><defs><style>.b{fill:#fd4c25;}.c{fill:#fdb906;}.d{fill:#fdb119;}.e{fill:#fe8304;}.f{fill:#fe6825;}.g{fill:#feb603;}.h{fill:#f87302;}.i{fill:#f6602e;}.j{fill:#fc7e26;}.k{fill:#df3203;}.l{fill:#fe5d25;}.m{fill:#fea602;}.n{fill:#f95824;}.o{fill:#fe5425;}.p{fill:#f95927;}.q{fill:#fe9a0c;}.r{fill:#fc531e;}.s{fill:#fda613;}.t{fill:#fd8f09;}.u{fill:#fdc607;}.v{fill:#e94b03;}.w{fill:#f26003;}.x{fill:#fbbe0c;}.y{fill:#fc8724;}.z{fill:#eb7452;}.aa{fill:#fd9606;}.ab{fill:#fe7224;}.ac{fill:#e33e03;}</style></defs><path class="x" d="M50.33,607.16c13.93.35,27.43.95,40.91.78,8.27-.11,16.43-1.61,20.74-10.24,4.92-9.86,1.74-20.17-8.08-26.33-8.45-5.3-8.95-6.7-7.12-16.65.69-3.75,2.74-5.73,6.37-5.71,13.32.07,26.68-.28,39.95.64,12.55.86,20.54,9.13,22.53,21.68.83,5.24,1.22,10.56,1.65,15.86.49,6.1,1.94,11.92,8.19,14.3,6.92,2.65,14.44,3.1,20.44-1.81,2.51-2.05,3.95-6.64,4.1-10.14.49-11.48.17-22.99.14-34.49-.01-7.67.35-8.07,8.03-8.71.83-.07,1.66-.2,2.49-.23,9.37-.37,10.53.63,10.43,9.9-.16,14.15.23,28.36-.98,42.43-1.25,14.46-11.4,23.01-25.85,23.39-7.15.19-14.35.25-21.46-.4-13.67-1.25-22.38-9.26-24.82-22.67-1.19-6.53-1.3-13.26-2.34-19.82-1.4-8.83-7.21-12.52-16.59-10.69,1.63,4.47,3.75,8.79,4.78,13.36,4.44,19.73-4.16,39.33-27.37,43.78-3.1.6-6.26,1.35-9.39,1.3-19.14-.3-38.32-.07-57.39-1.45-19.99-1.44-33.97-17.03-34.08-37-.05-8.93,1.3-17.91,2.59-26.79.25-1.75,3.12-3.13,4.8-4.66.1-.09.32-.05.49-.07,13.05-1.58,15.44.97,13.6,13.86-.7,4.91-1.08,9.94-.95,14.89.27,9.87,6.01,17.03,15.42,19.8,2.71.8,5.52,1.22,8.73,1.89Z"/><path class="x" d="M282.72,531.45c.01-6.66.13-12.83,0-18.99-.07-3.46,1.4-4.63,4.76-4.77,15.75-.66,15.74-.73,15.72,15.1-.03,22.66-.08,45.31-.05,67.97.01,9.36,2.57,11.84,11.95,11.85,12.66.01,25.32,0,37.98-.05,13.18-.06,18.63-4.89,19.78-17.85,3.29-37.05,40.24-46.77,64.32-32.69,15.09,8.83,22.71,29.22,17.65,47.16-8.64,30.6-46.09,40.81-68.98,18.69-3.18-3.07-5.32-3.31-9.39-1.09-4.66,2.54-10.31,4.33-15.58,4.47-18.98.51-37.98.33-56.97.12-13.05-.14-20.88-7.89-21.02-20.95-.25-22.82-.13-45.65-.16-68.97M428.91,568.62c-9.51-8.74-26.78-6.15-32.59,4.78-4.77,9-4.96,18.25-.44,27.36,3.59,7.23,9.83,10.51,17.82,10.77,8.32.28,14.89-2.64,19.33-9.94,4.73-7.8,5.69-23.58-4.12-32.98Z"/><path class="b" d="M453.29,188.53c.05,27.64.09,55.29-.27,83.47-1.06,3.51-1.71,6.48-2.64,9.62-1.45.21-3,.76-3.73.21-4.1-3.09-4.7-7.72-5.06-12.45-.34-4.45.59-9.85-1.61-13.11-4.46-6.62-4.74-14.6-9.38-21.39-4.68-6.86-8.77-14.89-7.53-25.16,1.4-11.53-2.2-23.29-4.87-34.88-2.21-9.55-2.94-19.79-2.24-29.58.75-10.5,3.36-20.88,2.68-31.56-.07-1.1.28-2.29.71-3.33,2.61-6.46,5.64-12.86-.23-19.27-.55-.6-.76-2.11-.4-2.84,3.35-6.93-.15-14.11.95-21.06.38-2.4,1.53-4.67,2.25-6.77-.71-2.04-1.8-4.32-2.24-6.71-.51-2.74-.83-5.64-.5-8.38.25-2.07,1.64-4,2.79-5.78,9.35,10.58,17.31,21.75,21.92,34.84,2.77,7.84,4.93,15.95,6.59,24.1,1.11,5.46.81,11.2,1.29,16.8.07.78,1,1.49,1.53,2.23.04,20.97.08,41.95-.31,63.48-.19,2.88.05,5.2.28,7.51Z"/><path class="p" d="M429.19,513.98c-12.5,3.19-24.68,3.74-35.89-2.39-5.51-3.02-10.28-7.72-14.69-12.33-3.54-3.69-2.55-7.6,1.58-11.28,4.63-4.12,8.65-4.58,12.47-1.35.89.75,1.71,1.6,2.45,2.49,7.03,8.52,16.22,9.87,26.27,7.58,11.37-2.58,17.16-11.64,16.1-24.34-5.01,1.74-9.97,3.83-15.13,5.18-8.14,2.14-16.24.97-24.06-1.73-11.98-4.13-19.4-15.51-19.63-30.17-.2-12.49-.07-24.98-.09-37.47,0-1.5,0-3,0-4.5.01-12.19,2.77-14.36,14.95-11.84,3.9.81,4.82,3.45,4.8,7.01-.08,13.49-.14,26.98-.03,40.47.13,17.05,13.07,25.87,29.27,20.07,6.52-2.33,10.34-8.25,10.38-16.61.08-14.49,0-28.98,0-43.47,0-7.06.61-7.68,7.67-7.79,1.66-.03,3.33-.03,5,.05,5.22.25,6.92,1.86,6.93,6.99.03,25.65.21,51.3-.09,76.95-.22,18.99-10.44,32.61-28.25,38.46Z"/><path class="m" d="M271.21,285.46c-.01.55-.03,1.11-.58,1.87-1.03.84-1.52,1.47-2.41,2.1-6.04-1.22-12.55-.67-15.15-7.83-.34-.94-2.14-1.45-3.35-1.95-2.09-.86-4.22-1.66-6.38-2.3-5.68-1.69-11.49-2.99-17.04-5.01-3.51-1.28-6.68-3.52-9.95-5.43-2.45-1.43-4.69-3.24-7.22-4.48-3.68-1.81-8.23-2.48-11.12-5.08-3.18-2.86-6.34-3.87-10.27-4.44-.01-21.8.03-43.14.46-64.47,3.85.97,8.02,1.04,10.65,3.08,8.36,6.51,17.8,9.96,27.63,13.56,7.18,2.63,14.67,6.33,21.06,10.56,7.34,4.86,14.74,8.5,23.05,11.28-.31,5.92-.84,11.38-.9,16.84-.14,12.66-.09,25.32.02,37.98.01,1.24.99,2.48,1.51,3.71Z"/><path class="r" d="M87.55,383.2s-.28.3-.84.29c-1.06,0-1.56,0-2.41,0-1.11.67-1.86,1.34-2.64,2.01-.03-.01.01.04-.35-.05-2.06-1.19-3.76-2.29-5.46-3.4-.6.58-1.2,1.16-1.8,1.74,1.88,3.22,3.75,6.45,5.62,10-.02.78-.04,1.22-.44,1.66-3.27.23-6.17.46-9.55.72-1.92-4.62-5.77-.91-9.09-1.1-.36-2.77-.72-5.15-1.07-7.89-1.02-1.44-2.03-2.53-3.4-3.66-6.86-3.93-13.82-5.84-21.81-5.01-1.8.65-3.23,1.32-4.96,2.14-2.45,2.36-4.59,4.58-6.95,6.92-.5.32-.67.59-.89,1.25-.39,1.42-.65,2.53-1.28,3.71-1.12,1.78-2.45,3.47-2.52,5.21-.5,12.88-.9,25.77-.99,38.66-.02,3.47,1.23,6.93,1.66,10.42.24,1.94.61,4.24-.16,5.86-3.48,7.27-.79,14.53-.53,22.09-.09.9-.15,1.51-.21,2.11-.4.11-.81.22-1.58,0-1.01-.16-1.67.02-2.32.19-.74.07-1.47.13-2.58-.2-.81-.93-1.26-1.45-1.7-1.97-.24.73-.49,1.46-.73,2.2-.72.06-1.44.12-2.54-.26-1.12-1.73-1.86-3.03-2.32-4.52-.2-1.06-.68-1.93-1.17-3.13,0-.77,0-1.22.02-2.13.19-6.39.35-12.31.52-18.23.5-.04,1.01-.08,1.51-.12-.96-1.08-1.92-2.15-2.9-3.66,0-2.14,0-3.85.26-5.79.35-1.1.46-1.97.58-3.31,0-6.78,0-13.09.03-19.87.01-3.86,0-7.26-.02-11.12,0-4.81.02-9.16.33-13.53.4-.67.49-1.32.61-2.38,1-4.21.96-8.75,3.11-11.7,9.68-13.26,22.87-19.12,39.31-15.97,5.76,1.1,11.34,3.13,17,4.74,0,0-.08.16-.09.46,2.1,2.49,4.1,4.83,6.42,6.77.67.56,2.95.44,3.37-.16,5.64-7.94,13.94-10.51,23.4-11.77,3.86,0,7.26,0,11.06-.01,3.11.38,5.82.75,8.65,1.32.34.48.63.63,1.28.81,15.64,6.43,21.27,19.07,21.55,34.37.43,23.48.14,46.97,0,70.45-.01,1.74-1.23,3.47-2.33,5.18-3.87.66-7.3,1.35-11.1,1.98-4.82-1.4-4.56-5.12-4.57-8.59-.04-23.26.02-46.53-.08-69.79-.01-2.41-.4-5-1.33-7.19-4.25-10.02-12.61-12.29-22.86-11.42-1.46.32-2.56.67-3.88,1.26-1.78,1.31-3.33,2.38-4.88,3.44Z"/><path class="n" d="M179.81,478.31c-23.13-7.48-34.89-34.89-26.63-59.71,8.27-24.87,31.58-32.96,51.58-26.65,4.79,1.51,9.04,4.74,13.55,7.18,3.03-4.95,10.3-7.42,15.68-4.39,1.89,1.07,3.78,4.08,3.81,6.23.25,23.14.12,46.28.1,69.41,0,3.99-1.79,6.27-5.96,6.36-1.16.02-2.32.13-3.49.2-4.88.3-9.5.11-10.75-6.6-11.54,8.95-23.9,11.65-37.9,7.96M202.06,408.12c-16.63-3.2-28.27,3.74-31,19.7-1.05,6.15-.4,13.04,1.24,19.12,2.71,10.06,11.66,16.13,21.48,16.26,9.81.13,18.41-5.84,22.02-15.74,2.87-7.85,3.11-15.95.87-24.01-2.03-7.32-6.32-12.72-14.61-15.33Z"/><path class="c" d="M187.79,253.38c3.88.1,7.04,1.12,10.22,3.98,2.88,2.6,7.44,3.27,11.12,5.08,2.53,1.25,4.78,3.05,7.22,4.48,3.27,1.91,6.44,4.15,9.95,5.43,5.55,2.02,11.36,3.32,17.04,5.01,2.17.64,4.29,1.44,6.38,2.3,1.21.5,3.01,1.01,3.35,1.95,2.6,7.16,9.11,6.61,15.15,8.29.46,1.69.52,2.91.57,4.14,0,0,.16.22-.27.37-.8,1.5-1.16,2.86-1.53,4.22-5.11,11.81-14.45,18.66-26.46,22.07-25.23,7.16-50.64-9.38-53.32-35.41.36-11.12.47-21.51.58-31.89Z"/><path class="g" d="M5.89,245.51c-.05-4.38-.1-8.77.33-13.59,4.77,3.72,10.45,3.27,15,1.83,9.3-2.96,18.62-2.04,27.98-2.14,1.06-.01,2.09.96,3.2,1.28,3.08.91,6.16,2.26,9.3,2.47,8.5.56,17.04.62,25.28.88.63,5.5,1.12,9.86,1.63,14.69,0,7.11.07,13.74-.03,20.38-.04,2.49-.08,5.16-3.85,5.01-9-.34-18-.71-27-.84-9.87-.14-19.74-.09-29.61.03-2.26.03-4.54,1.14-6.76.97-5.15-.39-10.31,3.86-15.41-.03-.07-2.07-.15-4.14.08-6.88.39-1.47.48-2.27.58-3.54-.24-7.15-.49-13.84-.73-20.52Z"/><path class="u" d="M5.84,276.89c5.22,3.44,10.38-.81,15.53-.42,2.21.17,4.5-.95,6.76-.97,9.87-.12,19.74-.17,29.61-.03,9,.13,18,.5,27,.84,3.77.14,3.82-2.52,3.85-5.01.1-6.64.03-13.27.03-20.85.24-10.65.47-20.36.71-30.07.29,1.93.83,3.87.83,5.8.03,17.48,0,34.96-.07,52.44-.12,29.96-29.23,49.95-57.63,39.95-15.66-5.52-28.73-22.55-26.62-41.68Z"/><path class="n" d="M328.11,475.07c-5.29-3.99-6.78-9.42-6.8-15.23-.12-30.14-.04-60.28-.15-90.42-.01-3.92,1.74-5.37,5.37-5.46,14.97-.38,14.11.57,14.03,12.88-.09,13.72-.03,13.72,13.84,13.69,1,0,2,0,3,0,9.41,0,10.19.81,9.71,10.24-.29,5.68-1.91,7.32-7.67,7.46-4.83.12-9.66.25-14.48.11-3.17-.1-4.46.94-4.43,4.26.11,13.65-.05,27.31.03,40.96.03,5.7,2.05,7.6,7.68,7.11,3.96-.35,7.84-1.51,11.8-1.96,5.88-.67,7.53.92,7.62,6.79.14,9.18-.28,9.92-9.51,10.85-7.72.78-15.51,1.16-23.27,1.28-2.14.03-4.3-1.53-6.76-2.56Z"/><path class="t" d="M152.51,2.69c.81.07,1.62.13,2.94.69,9.86,3.63,19.21,6.77,28.57,9.91,0,0,.36-.05.47.4.12.89.13,1.33-.14,2-.55,3.71-5.49,7.23-.88,9.86-.74,2.6-1.57,4.55-1.8,6.57-.53,4.8,1.32,9.99-2.72,14.18-.54.56-.44,1.94-.3,2.9,1.16,7.61-2.05,14.24-4.92,20.81-4.72,10.82-3.02,20.84,2.43,30.78,1.48,2.7,2.23,5.81,3.31,8.73-4.93-7.65-9.76-15.57-18.08-19.94-6.08-3.19-12.69-5.39-19.51-8.56-4.37-2.49-8.3-4.45-12.23-6.83.34-3.87.64-7.33,1.09-10.77.09-.72.61-1.53,1.17-2.02,2.19-1.93,4.78-3.49,6.66-5.68,2.05-2.38,3.78-5.15,5.08-8,1.4-3.08,1.19-7.5,3.37-9.47,3.2-2.9,3.27-6.05,2.24-8.91-2.06-5.68-5.06-11.02-7.69-16.5-.57-1.19-1.94-2.58-1.66-3.48,1.78-5.83-2.12-6.84-5.89-7.86,1.04-.29,1.77-.56,2.51-.82,1.45.05,2.9.09,4.86.61,1.73.43,2.96.38,4.18.34,1.12.04,2.24.08,3.81.6,1.35.47,2.24.46,3.14.46Z"/><path class="d" d="M5.91,135.47C2.81,91.74,17.9,55.45,51.3,26.48c4.14,1.71,8.75,1.75,9.59,6.86.07.43.95.96,1.5,1.03,7.42.96,7.31,7.89,8.89,12.55,1.38,4.08,2.14,5.38,6.27,2.69.43,2.08.77,3.65,1.07,5.23,1.28,6.7-2.31,11.64-6.39,16.61-6.46,2.09-12.52,4.12-18.92,6.23-8.44,4.01-16.08,8.57-22.15,15.79-3.45,4.02-6.56,7.99-9.97,12.11-1.4,1.77-2.74,3.27-3.57,5.01-3.97,8.26-7.81,16.59-11.7,24.89Z"/><path class="j" d="M207.62,27.48c5.28,4.46,10.67,8.82,15.8,13.44,2.31,2.08,4.13,4.7,5.84,6.69,9.61-8.18,18.04-16.23,27.37-23.04,9.73-7.11,20.07-13.58,32.37-15.89-1.41,7.35-.67,14.19,2.09,20.67,1.21,2.85,1.88,4.94-.14,7.74-2.02,2.8-2.29,5.7,1.45,8.01,1.22.75,2.11,3.03,2.11,4.61-.01,5.42.66,11.41-7.05,13.18,1.2,1.88,2.12,3.34,3.68,5.79-2.9.79-5.33,1.19-7.54,2.12-2.12.9-4.01,2.34-6.4,3.6-7.13,2.38-13.85,4.71-20.95,7.04-3.11,1.05-5.85,2.09-8.56,2.78.58-1.12,1.16-1.88,1.71-2.65.61-.86,1.21-1.73,1.81-2.59-1.13-.26-2.25-.53-3.38-.77-.6-.13-1.21-.21-2.2-.37,0-3.61-.43-7.13.1-10.49.77-4.95-2.5-5.94-6.14-6.78q5.6-7.8,1.96-9.43c-2.15,1.49-4.06,2.81-5.97,4.13-.98-1.6-1.97-3.21-2.63-4.85.77-.68,1.23-1.32,1.96-1.99.61-.34.93-.64,1.25-.95-.21-.18-.42-.36-.63-.54-.3.51-.6,1.02-1.23,1.57-.77.68-1.23,1.32-2.08,1.96-1.45,0-2.5,0-3.7-.29-5.85-6.05-11.59-11.75-17.21-17.58-1.44-1.5-2.47-3.38-3.69-5.09M237.42,44.37c.85.21,1.71.41,2.56.62.08-.59.16-1.17.24-1.76-.81.21-1.63.41-2.8,1.14Z"/><path class="e" d="M207.62,27.46c1.22,1.72,2.25,3.61,3.69,5.11,5.61,5.83,11.36,11.53,17.14,17.92-1.92,2.98-4.01,5.25-5.92,7.67-2.4,3.04-4.65,6.2-7.3,9.37-4.42,5.35-8.51,10.64-12.91,16.07-6.05,8.26-11.74,16.4-17.57,24.46-1.06,1.47-2.67,2.55-4.13,3.8-.1-.01-.28-.11-.28-.11-.27-.47-.55-.94-.85-1.82-1.11-3.34-1.85-6.44-3.33-9.15-5.45-9.95-7.14-19.96-2.43-30.78,2.86-6.57,6.08-13.2,4.92-20.81-.15-.95-.24-2.34.3-2.9,4.04-4.19,2.19-9.39,2.72-14.18.22-2.02,1.06-3.96,1.8-6.57-4.61-2.63.33-6.15,1.23-9.82,5.92,2.72,11.2,5.65,16.5,8.52,2.09,1.13,4.25,2.14,6.38,3.2,0,0,.03,0,.03.01Z"/><path class="x" d="M238.74,652.4c-5.91.23-11.38.38-16.85.51-.49.01-1.1,0-1.45-.27-4.86-3.69-2.01-8.93-2.26-13.42-.08-1.44,2.74-3.76,4.66-4.4,2.59-.87,5.58-.57,8.41-.65,11.74-.35,17.52-6.04,17.73-18.18.24-14.15.12-28.31.14-42.46,0-6.83.06-13.66-.07-20.48-.07-3.83,1.75-5.51,5.41-5.54,16.18-.1,15.14-1.17,15.07,14.04-.08,18.32.24,36.64-.2,54.95-.32,13.18-3.99,25.2-16.89,31.74-4.06,2.06-8.81,2.76-13.68,4.16Z"/><path class="w" d="M5.81,135.9c3.98-8.73,7.82-17.05,11.79-25.31.84-1.74,2.17-3.24,3.96-4.96,7.17,3.69,14.42,2.42,21.35,2.73,9.78.43,19.6-.07,29.39.18,5.9.15,11.86.8,15.33,6.64.61-1.19,1.06-2.08,1.51-2.97.18.35.36.7.54,1.04v16.24c.05,8.69.11,17.38-.2,26.51-.52.44-.69.43-.86-.03,0-2.12-.12-3.79.02-5.45.4-4.63-1.06-6.99-6.28-7.24-13.7-.66-27.37-2.03-41.07-2.77-7.3-.39-14.65-.3-21.97.02-4.56.2-9.07,1.23-13.61,1.89,0-2.03,0-4.07.09-6.53Z"/><path class="m" d="M89.48,220.03c-.39,10.06-.62,19.77-.87,29.95-.51-3.89-1-8.25-1.63-13.76-8.24-.25-16.78-.31-25.28-.88-3.14-.21-6.22-1.56-9.3-2.47-1.1-.33-2.14-1.29-3.2-1.28-9.35.1-18.67-.81-27.98,2.14-4.55,1.45-10.23,1.9-14.89-2.28-.44-1.42-.51-2.83-.29-4.88.16-1.79.02-2.94-.12-4.09-.06-2.74-.12-5.47.14-8.98.43-5.2.54-9.63.98-14,1.83,1.24,3.28,3.37,4.82,3.43,3.47.13,6.97-1.09,10.47-1.18,16.66-.4,33.33-1.49,49.65,3.76,5.55,1.79,11.64,1.91,17.48,2.79.06,3.79.12,7.58.03,11.72Z"/><path class="ab" d="M277.6,74.35c1.99-1.2,3.88-2.65,6-3.55,2.21-.93,4.64-1.34,7.54-2.12-1.56-2.45-2.48-3.91-3.68-5.79,7.71-1.77,7.04-7.76,7.05-13.18,0-1.58-.89-3.85-2.11-4.61-3.74-2.31-3.47-5.21-1.45-8.01,2.01-2.79,1.35-4.89.14-7.74-2.76-6.48-3.5-13.32-1.68-20.58,2.61-1.35,5.01-2.42,8-3.2,5.13-.53,9.67-1.34,14.25-1.79,1.87,2.77,3.22,6.47,5.62,7.36,7.07,2.62,9.36,4.79,9.3,12.26-.02,2.99.26,5.3,3.38,7,1.43.78,2.45,3.49,2.54,5.38.31,6.47.47,13-.08,19.43-.19,2.25-2.68,4.26-4,6.45-1.3,2.14-2.78,4.26-3.59,6.59-.79,2.27-.84,4.8-1.6,7.17-1.34-.33-2.28-.68-3.25-.9-14.11-3.21-28.24-2.8-42.38-.18Z"/><path class="p" d="M273.35,417.87c-.11,17.76-.13,35.07-.27,52.38-.05,6.54-.64,6.99-7.24,7.1-12.25.2-12.65-.15-12.66-12.37-.01-17.31,0-34.62.06-51.93.05-12.59,5.76-20.08,18.31-21.41,11.86-1.26,23.9-.84,35.87-1.11.78-.02,2.19.32,2.24.66.67,4.27,1.68,8.6,1.49,12.86-.14,3.24-3.22,4.24-6.37,4.22-6.66-.03-13.32-.12-19.97.08-7.73.23-10.24,2.36-11.47,9.51Z"/><path class="s" d="M72.61,71.38c3.69-4.9,7.29-9.84,6-16.55-.3-1.57-.64-3.14-1.07-5.23-4.14,2.7-4.9,1.39-6.27-2.69-1.57-4.66-1.47-11.6-8.89-12.55-.55-.07-1.43-.6-1.5-1.03-.84-5.11-5.45-5.15-9.26-6.89.21-.74.78-1.33,2.03-1.96,2.46-1.43,4.24-2.83,6.02-4.22.33-.28.66-.56,1.58-.92.84-.31,1.09-.55,1.34-.79,1.26-.79,2.53-1.57,4.46-2.35.98-.31,1.29-.63,1.61-.96,0,0,.14-.1.62-.01,1.76-.86,3.04-1.8,4.33-2.74,11.38-6.64,24.05-9.05,36.81-11.14,2.12-.35,4.28-.42,6.84-.39.41.23.44.53.13.8-6.29,1.5-12.28,2.74-17.84,3.88,2.14,4.97,4.26,9.56,6.08,14.27,1.04,2.7.84,6.23,2.54,8.26,2.96,3.51,2.42,6.58,1.47,10.52-1.73,7.15-3.52,14.46-3.77,21.75-.24,7.06.59,7.08-6.89,9.14-9.1.61-17.74,1.21-26.38,1.8M63.12,27.27c.37-.69.74-1.37,1.11-2.06-.56-.15-1.13-.3-1.69-.45-.03.78-.06,1.57.59,2.51Z"/><path class="y" d="M215.56,67.48c2.32-3.11,4.57-6.27,6.97-9.31,1.91-2.42,4-4.7,6.08-7.37,1.12-.34,2.17-.34,3.61-.34.4,0,.4,0,.4,0,.98,1.6,1.97,3.21,2.95,4.81,1.91-1.32,3.82-2.65,5.97-4.13q3.64,1.63-1.96,9.43c3.63.84,6.91,1.84,6.14,6.78-.53,3.36-.1,6.88-.1,10.49.99.16,1.6.24,2.2.37,1.13.24,2.26.51,3.38.77-.6.86-1.2,1.73-1.81,2.59-.55.77-1.13,1.53-1.93,2.9-5.46,4.38-10.69,8.16-16.26,11.99-3.85,2.96-7.64,5.62-10.79,8.89-2.12,2.21-3.34,5.28-5.33,7.98-2.76,2.58-5.57,4.86-7.48,7.75-3.01,4.56-5.4,9.52-8.4,14.38-2.43,4.7-4.53,9.33-6.99,14.03-1.45,5.03-2.53,9.99-3.61,15.4,0,3.15-.01,5.84-.3,8.84-.36,5.1-.44,9.9-.52,14.71-.04,21.34-.08,42.68-.07,64.48-.05,10.84-.17,21.22-.47,31.94-.34-1.14-.62-2.62-.62-4.09-.01-43.49,0-86.97.41-131.15,1.29-5.84,1.96-11.04,3.11-16.14,3.45-15.21,7.62-30.2,14.54-44.27,3.57-7.26,7.23-14.49,10.85-21.73Z"/><path class="aa" d="M89.59,207.98c-5.98-.55-12.07-.68-17.63-2.47-16.32-5.25-32.99-4.16-49.65-3.76-3.5.08-7,1.31-10.47,1.18-1.53-.06-2.99-2.19-4.84-3.9-.35-6.21-.34-11.9.13-17.59,22.44,0,44.41-.14,66.38.09,5.45.06,11.73.08,13.51,7.19.74,2.98.25,6.25.68,9.33.21,1.52,1.24,2.92,1.9,4.38.04,1.74.09,3.47,0,5.54Z"/><path class="i" d="M60.62,395.46c3.31-.19,7.16-3.9,9.08.72,3.38-.27,6.27-.5,9.56-.26.38,23.24.2,46.01.47,68.78.07,5.5-1,9.7-6.06,12.33-2.4.08-4.8.15-7.83-.13-4.51-2.67-5.38-6.09-5.34-10.48.2-23.65.11-47.3.12-70.95Z"/><path class="w" d="M199.56,135.39c2.65-4.79,5.05-9.75,8.06-14.31,1.9-2.89,4.71-5.18,7.7-7.4,4.53,1.13,8.46,2.52,12.43,2.62,13.36.32,26.73.24,40.09.16,3.28-.02,6.56-.64,9.84-.99-.95,3.48-1.9,6.96-3.2,10.81-.57.64-.52.87-.23,1.06-.08.86-.17,1.72-.61,2.92-.43.43-.59.56-.57.61.1.2.25.37.38.55-.1,1.49-.19,2.99-.79,4.95-.65,1.09-.79,1.71-.93,2.34.01.69.03,1.38-.34,2.15-3.06-4.16-7.38-3.2-11.31-3.29-7.86-.17-15.73-.25-23.6-.31-7.88-.05-15.77.18-23.64-.11-4.44-.17-8.86-1.14-13.28-1.75Z"/><path class="h" d="M199.22,135.46c4.77.54,9.18,1.52,13.62,1.69,7.87.29,15.76.06,23.64.11,7.87.05,15.73.13,23.6.31,3.93.09,8.25-.87,11.2,3.61.35,2.02.43,3.79.07,6.16-.56,3.44-.69,6.28-1.24,9.11-26.02,1.75-51.55,1.66-77.2-2.19-.12-1.92-.22-3.38-.31-4.85,2.09-4.63,4.19-9.26,6.62-13.96Z"/><path class="t" d="M89.72,201.99c-.78-1-1.81-2.4-2.02-3.92-.43-3.09.07-6.35-.68-9.33-1.77-7.11-8.06-7.13-13.51-7.19-21.97-.24-43.94-.1-66.4-.56-.48-5.16-.47-9.85-.07-14.53,3.13.6,6.19,2.3,8.55,1.6,8.74-2.59,17.36-1.61,26.12-.65,15.46,1.69,31.49-1.51,46.89,6.36,0-5.74,0-10.53,0-15.65.01-.79.02-1.25.03-1.7.17,0,.33,0,.75.03.32,15.04.39,30.06.34,45.54Z"/><path class="v" d="M89.85,129.12c-.16-5.05-.16-10.47-.16-15.88-.18-.35-.36-.7-.54-1.04-.45.89-.9,1.77-1.51,2.97-3.47-5.84-9.43-6.49-15.33-6.64-9.79-.25-19.61.25-29.39-.18-6.93-.3-14.18.96-21.06-2.89,2.72-4.02,5.84-7.98,9.74-11.99,5.22-.37,9.66-1,14.1-.95,6.77.07,13.55.37,20.28,1.02,5.7.55,11.61.97,16.94,2.84,5.64,1.97,10.64,2.83,15.22-.2.86,1.12,1.68,2.2,2.5,3.29-.29.55-.58,1.11-1.49,1.83-2.18,1.52-5.95,1.69-3.35,5.26-1.93,7.4-3.86,14.8-5.95,22.57Z"/><path class="v" d="M277.78,115.36c-3.38.45-6.66,1.07-9.94,1.09-13.37.08-26.74.16-40.09-.16-3.97-.09-7.9-1.49-12.07-2.63,1.41-3.03,2.63-6.1,4.75-8.31,3.15-3.27,6.93-5.93,11.15-8.73,3.76.69,6.8,1.67,9.86,1.75,8.45.23,16.93-.12,25.38.18,3.39.12,6.81,1.09,10.08,2.11,2.94.92,4.04,2.98,2.82,6.22-.97,2.59-1.34,5.4-1.97,8.12,0,0,.13.26.03.37Z"/><path class="k" d="M72.22,71.44c9.04-.65,17.68-1.24,27.1-1.6,7.55,1.07,14.32,1.9,21.37,2.99,2.5.72,4.72,1.19,7.27,1.7.79.06,1.24.07,1.69.08,3.92,1.96,7.85,3.93,11.88,6.21-.72.34-1.56.35-2.99.11-1.59-.14-2.59-.01-3.58.11-6.02,1.77-12.03,3.53-18.46,5.35-.41.05-.49.07-.49.07-.88.61-1.77,1.23-3.25,1.98-.85.27-1.05.46-1.19.7-.45.41-.89.82-1.78.96-.93-.93-1.35-2.08-1.91-2.16-6.29-.85-12.17-3.05-18.89-2.86-9.92.28-19.94-1.7-29.86-3.09-2.25-.31-5.71-.44-5.5-4.41,6.06-2.03,12.12-4.06,18.58-6.15Z"/><path class="h" d="M88.63,155.97c0,.91-.01,1.36-.42,2.1-10.05-2.58-19.96-4.03-29.96-4.53-17.2-.87-34.41-1.39-51.63-2.38-.31-1.09-.6-1.86-.89-2.63-.06-1.75-.11-3.49-.09-5.67,4.62-1.09,9.14-2.12,13.7-2.32,7.31-.32,14.66-.41,21.97-.02,13.7.74,27.37,2.1,41.07,2.77,5.22.25,6.68,2.61,6.28,7.24-.14,1.65-.02,3.33-.02,5.45Z"/><path class="k" d="M277.2,74.41c14.54-2.67,28.67-3.09,42.79.12.97.22,1.9.57,3.61.96,2.57.79,4.49,1.3,6.2,2.2,4.05,2.14,8.01,4.47,11.63,6.61-1.89-.32-3.4-.53-4.92-.74-15.85-4.27-30.41-2.17-43.69,8.46-3.55-2-6.45-4.79-9.73-5.34-7.79-1.31-15.78-1.47-23.65-2.37-1.03-.12-1.88-1.87-2.81-2.86,6.72-2.33,13.45-4.65,20.58-7.03Z"/><path class="ac" d="M53.3,77.67c.13,3.89,3.59,4.02,5.84,4.33,9.92,1.39,19.94,3.37,29.86,3.09,6.72-.19,12.6,2,18.89,2.86.56.08.98,1.23,1.6,2.2-.24.75-.62,1.2-1.43,1.47-.77.4-1.1.96-1.44,1.53-.09.16-.18.31-.67.29-.9-.22-1.4-.27-1.9-.32.16.69.32,1.39.47,2.08-1.09,1.34-2.18,2.68-3.57,4.14-1.13-.96-1.95-2.05-2.81-3.17-4.58,3.03-9.58,2.17-15.22.2-5.33-1.86-11.24-2.29-16.94-2.84-6.73-.65-13.52-.95-20.28-1.02-4.43-.05-8.88.58-13.77.9,5.29-7.18,12.93-11.74,21.37-15.75Z"/><path class="z" d="M336.77,83.77c1.24,0,2.76.21,4.98.57,2.4.84,4.1,1.52,5.97,2.44.72.44,1.27.65,2.03,1.1,2.4,2.06,4.59,3.87,6.95,5.97,9.57,9.86,14.19,21,14.07,34.78-.4,48.49-.23,96.99-.07,145.49.02,5.56.7,11.32,2.28,16.63,3.72,12.47,12.3,21.19,24.2,25.86,10.35,4.06,21.1,3.4,31.74-1.29,1.67-1.08,3-2.06,4.4-2.94,11.38-7.18,17.62-17.23,17.34-30.93.65-2.97,1.3-5.94,2.3-8.99,3.27,30.61-19.19,52.24-49.46,47.87-18.92-2.73-34.38-21.37-34.41-42.03-.08-48.83-.12-97.67.16-146.5.08-14.83-3.76-27.8-15.33-37.42-5.03-4.18-11.22-6.97-17.15-10.61Z"/><path class="ac" d="M256.25,81.45c1.3.98,2.15,2.74,3.18,2.85,7.87.9,15.86,1.06,23.65,2.37,3.28.55,6.18,3.34,9.4,5.44.15.33.14.33-.23.34-4.68.83-6.15,3.95-6.68,7.83-2.41,4.75-4.82,9.49-7.54,14.47.34-2.48.7-5.3,1.67-7.88,1.21-3.24.12-5.31-2.82-6.22-3.27-1.02-6.69-1.99-10.08-2.11-8.45-.3-16.92.05-25.38-.18-3.07-.08-6.11-1.07-9.52-1.8,4.86-3.94,10.09-7.72,15.53-11.75,2.95-1.29,5.69-2.33,8.8-3.38Z"/><path class="z" d="M311.62,3.42c-4.54.81-9.08,1.63-13.83,2.15,8.27-1.98,16.68-4.58,25.23-5.19,23.53-1.67,46.09,2.06,67.5,12.85,21.72,10.95,37.84,27.26,49.44,48.26,9.45,17.1,13.54,35.65,13.48,55.59-.65-.28-1.58-.99-1.65-1.77-.48-5.6-.18-11.34-1.29-16.8-1.66-8.15-3.82-16.26-6.59-24.1-4.62-13.09-12.57-24.26-22.09-35.13-5.07-4.85-9.4-9.63-14.45-13.44-4.46-3.37-9.74-5.67-14.88-8.7-3.21-1.95-6.07-3.98-9.24-5.26-4.24-1.72-8.65-3.2-13.11-4.17-9.13-1.98-18.35-3.55-27.98-5.29-10.48.33-20.51.67-30.54,1.01Z"/><path class="x" d="M212.12,514.94c.11-5.48,2.84-7.56,7.69-7.28.66.04,1.33.01,1.99.01,13.08,0,14.31,1.4,13.23,14.33-.32,3.82-2.24,5.79-5.91,6.02-2.97.19-5.96.14-8.95.12-6.6-.05-8.17-1.65-8.19-8.3,0-1.49.07-2.98.13-4.9Z"/><path class="x" d="M205.15,524.49c-3.23,3.52-16,5.14-19.65,2.74-.9-.59-1.54-1.66-2.11-2.63-.31-.53-.24-1.28-.31-1.94-1.38-13.79,4.26-18.53,17.9-14.57,1.8.52,3.8,3.16,4.17,5.11.66,3.51.15,7.24,0,11.28Z"/><path class="x" d="M75.61,654.19c-.33-.84-.56-1.32-.57-1.8-.42-17.5-.1-15.54,17.38-15.23.33,0,.66.11.97.21,3.82,1.28,5.29,6.63,3.97,14.75-.6,3.69-2.78,5.73-6.56,5.26-5.05-.63-10.78,2.2-15.19-3.19Z"/><path class="v" d="M215.23,67.53c-3.29,7.18-6.95,14.4-10.52,21.67-6.92,14.07-11.1,29.06-14.54,44.27-1.15,5.09-1.83,10.29-3.01,15.67-2.1-11.1-3.92-22.43-5.66-34.21.07-.45.17-.52.41-.3,1.55,4.08,3.26,2.34,4.39.29,3.94-7.15,7.7-14.39,11.48-21.63,1.69-3.24,3.24-6.56,4.86-9.85,4.09-5.29,8.18-10.58,12.6-15.93Z"/><path class="x" d="M58.49,657.47q-13.14,0-12.94-12.77c.11-6.69.84-7.45,7.4-7.68.5-.02,1,0,1.5,0,13.19-.03,13.59.37,13.21,13.27-.18,5.96-1.23,6.83-9.16,7.18Z"/><path class="z" d="M136.69,473.53c.66-1.74,1.87-3.47,1.88-5.21.14-23.48.43-46.98,0-70.45-.28-15.3-5.91-27.94-21.68-34.57-.67-.6-.95-.75-1.28-.81-2.71-.36-5.41-.73-8.83-1.38-4.21-.11-7.72.07-11.22.25-9,1.29-17.3,3.86-22.94,11.8-.43.6-2.71.72-3.37.16-2.32-1.94-4.32-4.28-6.35-6.83,2.57,1.49,5.06,3.35,7.97,5.52,9.71-12.41,23.28-14.1,37.74-12.45,17.46,1.99,30.11,14.31,30.92,31.84.94,20.44.38,40.95.46,61.43.02,6,.05,11.99.02,17.99-.01,3.24-.7,6.05-5.06,5.97.35-1.34,1.05-2.3,1.74-3.25Z"/><path class="z" d="M2.54,416.51c0,6.31,0,12.63-.24,19.63-.36,1.56-.47,2.43-.58,3.3,0,1.71-.02,3.43-.05,6.03.28,7.94.58,14.98.88,22.02,0,.44,0,.89,0,1.99.3,1.44.6,2.21.89,2.99.74,1.3,1.48,2.6,2.25,4.23-4.34.43-5.33-2.67-5.35-5.97-.11-25.79-.8-51.61.13-77.37.85-23.34,19.24-36.7,44.62-34.17,6.38.64,12.51,1.9,17.67,6.59-5.51-1.32-11.09-3.34-16.85-4.45-16.44-3.15-29.63,2.7-39.31,15.97-2.15,2.95-2.11,7.49-3.34,11.88-.4,1.13-.55,1.68-.7,2.22,0,4.35-.02,8.7-.3,13.82-.1,4.27.08,7.77.26,11.28Z"/><path class="s" d="M270.55,156.46c.12-2.84.24-5.68.64-8.71.53,1.53,1.02,3.25,1.01,4.97-.09,26.57-.3,53.14-.36,79.71-.03,14.94.19,29.89.24,44.83,0,2.48-.29,4.96-.66,7.82-.74-.86-1.72-2.1-1.73-3.34-.11-12.66-.16-25.32-.02-37.98.06-5.46.59-10.91.92-17.3,0-7.62,0-14.31,0-21.46,0-10.49,0-20.52,0-31.01-.01-6.15-.03-11.83-.05-17.51Z"/><path class="z" d="M60.6,395.08c0,24.03.1,47.69-.11,71.34-.04,4.39.83,7.82,4.9,10.39-5.02.48-6.18-2.58-6.16-7.08.09-23.16.01-46.33.09-69.49.03-7.48-1.67-14.21-8.99-17.54-7.3-3.33-15.1-3.64-21.88,1.13-2.89,2.03-4.42,5.99-6.98,9.23-.63-.05-.78-.3-.87-.59.25-1.11.51-2.21,1.12-3.75.62-.65.8-.92.89-1.24,2.14-2.22,4.28-4.44,7.09-6.81,2.11-.8,3.54-1.45,4.98-2.1,7.61-.86,14.57,1.05,21.5,5.31,1.4,1.49,2.37,2.59,3.34,3.69.35,2.38.7,4.77,1.07,7.53Z"/><path class="z" d="M96.68,378.53c9.88-.9,18.24,1.37,22.49,11.39.93,2.2,1.32,4.78,1.33,7.19.1,23.26.04,46.53.08,69.79,0,3.47-.25,7.19,4.63,8.96.45.67.47.92.49,1.17-5.68-.15-6.87-1.27-6.88-7.15-.05-23.48.09-46.96-.18-70.43-.05-3.96-.9-8.46-2.93-11.75-4.93-8-16.49-9.56-27.78-4.51,1.17-1.06,2.72-2.13,4.86-3.45,1.69-.58,2.79-.9,3.89-1.22Z"/><path class="i" d="M20.24,392.52c.46.22.61.47,1.02.78.1,1.83.01,3.55-.52,5.88-.65,2.37-1.05,4.14-1.05,5.9-.04,21.22.02,42.45-.12,63.67-.01,1.91-1.2,3.8-1.84,5.7-.29-7.26-2.98-14.52.5-21.78.77-1.62.4-3.92.16-5.86-.43-3.49-1.69-6.96-1.66-10.42.09-12.89.49-25.78.99-38.66.07-1.74,1.4-3.43,2.52-5.21Z"/><path class="z" d="M74.04,477.14c4.69-2.74,5.75-6.94,5.69-12.44-.28-22.77-.1-45.54-.09-68.78,0-.91.02-1.36.31-2.39.76-3.06,1.25-5.53,1.73-8,0,0-.04-.05.3-.07,1.13-.67,1.9-1.32,2.68-1.97.5,0,.99-.01,1.85.05-4.4,4.96-5.37,11.06-5.37,17.56,0,22.81-.11,45.61-.09,68.42,0,4.66-1.2,7.93-7.02,7.62Z"/><path class="z" d="M17.69,474.76c.68-2.2,1.87-4.1,1.88-6.01.13-21.22.07-42.45.12-63.67,0-1.77.4-3.54.92-5.49.46,2.6.73,5.39.73,8.19.03,20.54.12,41.09-.14,61.63-.03,2.55-1.98,5.07-3.38,7.54-.29-.68-.23-1.28-.13-2.18Z"/><path class="d" d="M5.64,148.98c.38.31.67,1.08.96,2.64.02,5.47.04,10.16.06,14.84,0,4.69-.01,9.38,0,14.54.01,6.15,0,11.84.02,18-.08,4.9-.19,9.33-.53,14.08-.36-21-.47-42.32-.5-64.09Z"/><path class="j" d="M207.49,27.13c-2.03-.74-4.19-1.75-6.28-2.88-5.31-2.88-10.58-5.81-16.23-8.76-.36-.48-.37-.92-.36-1.68,7.6,4.11,15.18,8.56,22.87,13.32Z"/><path class="j" d="M183.85,12.98c-9.19-2.83-18.55-5.97-28.05-9.38,9.2,2.84,18.54,5.96,28.05,9.38Z"/><path class="i" d="M126.08,477.1c-.41-.32-.43-.57-.51-1.19,3.37-1.06,6.8-1.75,10.67-2.41-.25.98-.95,1.94-1.66,3.2-2.72.36-5.42.41-8.51.39Z"/><path class="j" d="M117.7,1.49s-.02-.3-.03-.45c6.03-.33,12.07-.5,18.48-.52-.36.43-1.1.7-2.57.96-2.17.02-3.6.05-5.24.05-.22-.02-.65.02-1.1-.01-3.48-.03-6.51-.03-9.53-.03Z"/><path class="d" d="M5.77,245.96c.36,6.23.61,12.91.67,20.06-.19.46-.56.45-.56.45-.07-6.69-.15-13.37-.11-20.51Z"/><path class="k" d="M285.86,100.13c.24-3.72,1.72-6.83,6.4-7.66-1.79,2.5-3.95,5-6.4,7.66Z"/><path class="z" d="M453.42,188.09c-.36-1.88-.59-4.2-.47-6.62.44,2,.52,4.09.47,6.62Z"/><path class="d" d="M59.38,20.23c-1.48,1.43-3.25,2.83-5.4,4.22,1.46-1.42,3.27-2.84,5.4-4.22Z"/><path class="ac" d="M96.08,106.39c-2.88-3.41.89-3.58,2.77-4.98-.61,1.57-1.55,3.2-2.77,4.98Z"/><path class="s" d="M269.09,293.76c-.36-.97-.41-2.19-.47-3.87.49-1.09.98-1.72,1.8-2.37-.12,1.99-.57,3.98-1.33,6.24Z"/><path class="s" d="M267.26,298.41c.1-1.17.47-2.53,1.19-3.92-.07,1.22-.49,2.47-1.19,3.92Z"/><path class="d" d="M73.25,12.46c-.93.97-2.21,1.91-3.89,2.8.91-.98,2.22-1.9,3.89-2.8Z"/><path class="j" d="M145.26,1.46c-.93.22-2.15.26-3.5.05.99-.24,2.1-.23,3.5-.05Z"/><path class="i" d="M8.92,477.18c-.1-.84.15-1.57.39-2.3.44.52.88,1.05,1.34,1.88-.45.38-.92.45-1.72.42Z"/><path class="j" d="M152.3,2.45c-.69.25-1.59.25-2.58.02.73-.25,1.55-.25,2.58-.02Z"/><path class="k" d="M104.78,95.16c-.42-.64-.58-1.34-.74-2.03.5.05.99.1,1.64.4-.11.69-.38,1.14-.9,1.63Z"/><path class="i" d="M13.93,477.16c.31-.28.96-.45,1.67-.37-.41.33-.87.4-1.67.37Z"/><path class="v" d="M180.27,112.01c.08-.26.26-.15.48.09.45.94.69,1.63.93,2.32,0,0-.09.07-.14.11-.48-.73-.91-1.5-1.26-2.53Z"/><path class="t" d="M135.29,81.18c.68-.26,1.67-.39,2.86-.34-.72.27-1.63.38-2.86.34Z"/><path class="d" d="M5.8,222.88c.26.77.4,1.92.33,3.29-.29-.82-.36-1.86-.33-3.29Z"/><path class="k" d="M106.87,93.13c.08-.55.42-1.12.89-1.46-.12.63-.38,1.03-.89,1.46Z"/><path class="u" d="M5.79,266.82c.09-.36.46-.34.64-.33.09.81,0,1.61-.29,2.64-.28-.5-.36-1.22-.35-2.31Z"/><path class="h" d="M272.05,138.56c-.17-.47-.03-1.1.39-1.89.16.47.04,1.1-.39,1.89Z"/><path class="d" d="M68.32,15.29c.03.28-.28.6-.94.97-.03-.28.28-.61.94-.97Z"/><path class="ac" d="M115.99,86.59c.03-.13.11-.15.12-.17.01-.02.1.23.1.23,0,0-.25.07-.22-.06Z"/><path class="h" d="M274.38,127.15c-.43,0-.48-.24-.14-.57.13-.06.27.38.14.57Z"/><path class="ac" d="M111.82,89.15c-.09-.25.11-.44.56-.64.18.29,0,.53-.56.64Z"/><path class="d" d="M62.32,18.55c.03.24-.22.48-.73.76-.02-.23.22-.49.73-.76Z"/><path class="h" d="M273.59,131.2c-.27.04-.42-.13-.52-.33-.02-.04.13-.18.37-.34.21.1.25.27.15.66Z"/><path class="o" d="M392.71,17.39c4.92,2.77,10.19,5.07,14.66,8.44,5.05,3.82,9.38,8.59,14.19,13.24-.71,2.28-2.11,4.21-2.36,6.27-.33,2.74-.01,5.64.5,8.38.44,2.39,1.54,4.67,2.24,6.71-.72,2.1-1.87,4.38-2.25,6.77-1.11,6.96,2.4,14.14-.95,21.06-.36.74-.15,2.24.4,2.84,5.87,6.4,2.84,12.81.23,19.27-.42,1.04-.77,2.24-.71,3.33.67,10.68-1.93,21.06-2.68,31.56-.7,9.79.03,20.02,2.24,29.58,2.68,11.58,6.27,23.34,4.87,34.88-1.24,10.26,2.84,18.3,7.53,25.16,4.64,6.79,4.92,14.78,9.38,21.39,2.19,3.26,1.27,8.66,1.61,13.11.36,4.73.96,9.36,5.06,12.45.73.55,2.29,0,3.73-.21.55,13.53-5.69,23.58-17.07,30.76-1.39.88-2.72,1.86-4.4,2.56-2.37-3.87-2.62-7.38.3-9.77-1.99-2.28-4.13-3.83-5.01-5.92-1.33-3.14-1.48-6.77-2.71-9.96-.71-1.84-2.32-4.22-3.97-4.65-4.11-1.08-4.66-3.55-3.51-6.72,1.64-4.55-.1-7.15-4-9.28-1.39-.76-2.96-2.37-3.22-3.82-1-5.52-1.11-11.22-2.33-16.68-.85-3.81-1.98-8.93-4.73-10.62-4.25-2.61-4.91-4.63-2.91-8.61,1.62-3.22,1.13-6.05-2.68-7.07-3.91-1.04-4.76-3.53-4.56-7.1.43-7.95.65-15.91,1.05-23.86.18-3.63,1.03-7.28.73-10.86-.19-2.29-1.37-5.02-3.03-6.55-4.03-3.72-3.83-13.29.43-16.76,1.48-1.2,2.96-3.93,2.62-5.58-2.33-11.11-3.49-22.23-1.7-33.49.46-2.92,1.64-5.77,2.78-8.52,1.51-3.63,4.17-6.99,4.83-10.73,1.57-8.92,2.53-17.98,3.22-27.02.48-6.3.21-12.66.03-18.99-.07-2.45-.39-5.03-1.28-7.28-2.15-5.46-5.26-10.61-6.89-16.2-1.03-3.55-4.42-7.86.32-11.51Z"/><path class="aa" d="M270.59,205.46c0,6.69,0,13.37-.01,20.53-8.31-1.84-15.71-5.48-23.05-10.34-6.38-4.23-13.88-7.93-21.06-10.56-9.83-3.6-19.27-7.05-27.63-13.56-2.63-2.04-6.79-2.11-10.65-3.08-.32-4.81-.24-9.61.55-14.71,7.35-2.09,12.98.12,18.37,3.87,2.27,1.58,4.77,3.32,7.38,3.81,8.64,1.62,15.26,7.19,22.81,10.91,2.77,1.37,5.75,2.67,7.98,4.72,7.24,6.68,14.75,11.96,25.3,8.42Z"/><path class="i" d="M81.31,385.45c-.12,2.56-.61,5.02-1.36,7.75-2.14-2.96-4.02-6.19-5.89-9.41.6-.58,1.2-1.16,1.8-1.74,1.7,1.1,3.4,2.21,5.46,3.4Z"/><path class="i" d="M2.58,467.03c-.32-6.57-.62-13.61-.89-21.12,1,.61,1.96,1.69,2.92,2.76-.5.04-1.01.08-1.51.12-.16,5.92-.33,11.84-.52,18.23Z"/><path class="i" d="M96.02,361.39c3.04-.21,6.54-.39,10.35-.3-3.09.29-6.49.31-10.35.3Z"/><path class="i" d="M2.57,416.05c-.21-3.04-.38-6.54-.29-10.35.29,3.09.3,6.49.29,10.35Z"/><path class="i" d="M34.32,378.51c-1.06.68-2.49,1.34-4.29,1.99,1.06-.67,2.49-1.35,4.29-1.99Z"/><path class="i" d="M59.53,387.19c-.97-.74-1.94-1.84-2.98-3.28.95.75,1.96,1.84,2.98,3.28Z"/><path class="i" d="M3.73,472.3c-.58-.59-.87-1.37-1.17-2.47.48.55.97,1.42,1.17,2.47Z"/><path class="i" d="M84.3,383.49c-.42.66-1.2,1.31-2.29,1.99.43-.65,1.18-1.32,2.29-1.99Z"/><path class="i" d="M2.88,391.4c-.16-.52,0-1.07.36-1.8.13.47.03,1.12-.36,1.8Z"/><path class="i" d="M96.31,378.5c-.73.35-1.83.67-3.29,1,.73-.34,1.82-.68,3.29-1Z"/><path class="i" d="M1.96,439.23c-.13-.64-.02-1.52.33-2.61.13.64.02,1.52-.33,2.61Z"/><path class="i" d="M115.74,362.7c.21-.15.48,0,.84.46-.21.17-.5.02-.84-.46Z"/><path class="i" d="M22.4,387.57c.13.21-.05.48-.53.81-.14-.22.03-.49.53-.81Z"/><path class="q" d="M128.55,1.56c1.43-.03,2.85-.05,4.71-.05,4.51,1.03,8.42,2.03,6.63,7.86-.28.91,1.09,2.3,1.66,3.48,2.63,5.48,5.63,10.82,7.69,16.5,1.03,2.85.96,6.01-2.24,8.91-2.18,1.97-1.97,6.39-3.37,9.47-1.3,2.86-3.03,5.63-5.08,8-1.88,2.18-4.47,3.75-6.66,5.68-.56.49-1.07,1.3-1.17,2.02-.45,3.44-.75,6.9-1.09,10.77-.44.4-.89.39-1.82.03-1.27-1.36-2.07-2.38-2.71-3.21-1.72.57-3.21,1.07-4.7,1.56-6.77-.84-13.54-1.67-20.63-2.76,6.7-2.28,5.86-2.31,6.1-9.37.25-7.29,2.04-14.6,3.77-21.75.95-3.93,1.49-7-1.47-10.52-1.7-2.02-1.49-5.56-2.54-8.26-1.82-4.71-3.95-9.31-6.08-14.27,5.56-1.15,11.55-2.38,17.84-3.88,3.33-.27,6.35-.27,9.91-.09.53.18.96.25.96.25l.29-.37Z"/><path class="y" d="M237.61,44.11c1-.47,1.81-.67,2.62-.88-.08.59-.16,1.17-.24,1.76-.85-.21-1.71-.41-2.38-.88Z"/><path class="y" d="M234.62,48.45c-.45.64-.91,1.28-1.68,1.96-.32.04-.32.04-.32.04.45-.64.91-1.28,1.68-1.96.32-.04.32-.04.32-.04Z"/><path class="y" d="M234.62,48.45c.3-.51.6-1.02.91-1.53.21.18.42.36.63.54-.32.3-.64.61-1.25.95-.28.04-.28.03-.28.03Z"/><path class="w" d="M181.91,114.64c-.48-.91-.71-1.6-1.06-2.53,1.24-1.5,2.85-2.58,3.91-4.05,5.83-8.05,11.52-16.2,17.57-24.46-1.31,3.14-2.86,6.46-4.55,9.71-3.77,7.24-7.54,14.48-11.48,21.63-1.13,2.05-2.84,3.79-4.39-.29Z"/><path class="f" d="M311.65,3.78c9.99-.7,20.02-1.04,30.56-1.02,2.88,4.22,5.51,7.58,10.68,7.75.99.03,2.51,1.36,2.8,2.37,2.12,7.28,4.44,14.55,5.74,21.99.71,4.06.03,8.23,4,11.09.75.54,1.05,2.03,1.13,3.12.43,5.59,1.36,11.25.9,16.79-.72,8.75-2.4,17.42-3.61,25.71-3.04.82-5.19,1.41-7.33,1.99-2.19-1.81-4.37-3.63-6.77-6.01-.88-.71-1.54-.86-2.21-1.01-1.69-.68-3.38-1.37-5.41-2.09-4.33-2.3-8.29-4.62-12.34-6.77-1.71-.9-3.62-1.41-5.81-2.15.01-2.47.06-5.01.85-7.28.81-2.33,2.29-4.45,3.59-6.59,1.33-2.19,3.81-4.21,4-6.45.55-6.44.38-12.96.08-19.43-.09-1.89-1.1-4.6-2.54-5.38-3.13-1.7-3.4-4.01-3.38-7,.05-7.47-2.23-9.63-9.3-12.26-2.4-.89-3.75-4.58-5.62-7.36M354.92,87.88l-.85.82c.11.12.32.34.33.34.3-.25.58-.53.53-1.15Z"/><path class="d" d="M62.78,27.2c-.31-.86-.28-1.65-.25-2.43.56.15,1.13.3,1.69.45-.37.69-.74,1.37-1.45,1.98Z"/><path class="t" d="M270.6,204.99c-10.57,4.01-18.08-1.27-25.31-7.95-2.22-2.05-5.2-3.36-7.98-4.72-7.55-3.72-14.18-9.29-22.81-10.91-2.61-.49-5.11-2.23-7.38-3.81-5.38-3.74-11.02-5.95-18.08-4.17-.42-2.7-.42-5.4.04-8.54,4.64.29,8.83.99,13.01,1.76,6.75,1.24,13.48,2.57,20.25,3.75,1.62.28,3.32.02,4.97.16,14.44,1.27,28.87,2.57,43.31,3.87,0,10.03.01,20.05,0,30.55Z"/><path class="e" d="M270.6,173.98c-14.44-.83-28.88-2.13-43.32-3.4-1.65-.14-3.35.12-4.97-.16-6.76-1.18-13.5-2.51-20.25-3.75-4.18-.77-8.37-1.48-13-2.21.63-4.96,1.71-9.92,3.16-14.95.46,1.39.56,2.85.68,4.77,25.65,3.85,51.18,3.94,77.2,2.19.45,5.69.47,11.37.49,17.52Z"/><path class="e" d="M7.05,166.46c-.41-4.69-.43-9.37-.44-14.52,17.22.2,34.44.73,51.63,1.59,10,.5,19.91,1.95,29.96,4.87.4,4.84.4,9.62.4,15.37-15.4-7.88-31.42-4.67-46.89-6.36-8.75-.96-17.37-1.94-26.12.65-2.35.7-5.42-.99-8.55-1.6Z"/><path class="t" d="M120.69,72.82c1.21-.74,2.69-1.24,4.42-1.81.65.83,1.44,1.85,2.38,3.17-2.08-.17-4.3-.64-6.79-1.36Z"/><path class="l" d="M356.7,93.85c1.98-.87,4.13-1.45,7.16-2.27,1.21-8.29,2.89-16.96,3.61-25.71.45-5.54-.48-11.19-.9-16.79-.08-1.08-.38-2.58-1.13-3.12-3.98-2.86-3.29-7.02-4-11.09-1.3-7.44-3.62-14.71-5.74-21.99-.29-1.01-1.81-2.34-2.8-2.37-5.17-.16-7.8-3.52-10.23-7.74,9.12,1.38,18.34,2.95,27.47,4.93,4.47.97,8.87,2.45,13.11,4.17,3.16,1.28,6.02,3.31,9.24,5.26-4.52,3.91-1.13,8.23-.1,11.77,1.63,5.59,4.74,10.74,6.89,16.2.89,2.25,1.21,4.83,1.28,7.28.17,6.33.44,12.69-.03,18.99-.69,9.04-1.65,18.1-3.22,27.02-.66,3.74-3.32,7.1-4.83,10.73-1.15,2.76-2.32,5.6-2.78,8.52-1.79,11.26-.63,22.38,1.7,33.49.35,1.65-1.14,4.38-2.62,5.58-4.26,3.47-4.47,13.04-.43,16.76,1.66,1.53,2.85,4.26,3.03,6.55.29,3.57-.55,7.23-.73,10.86-.4,7.95-.62,15.91-1.05,23.86-.19,3.57.65,6.06,4.56,7.1,3.81,1.01,4.3,3.84,2.68,7.07-2,3.98-1.34,6.01,2.91,8.61,2.75,1.69,3.88,6.81,4.73,10.62,1.22,5.46,1.33,11.16,2.33,16.68.26,1.45,1.83,3.06,3.22,3.82,3.9,2.13,5.64,4.73,4,9.28-1.14,3.17-.6,5.65,3.51,6.72,1.65.43,3.26,2.81,3.97,4.65,1.23,3.19,1.39,6.82,2.71,9.96.88,2.09,3.02,3.65,5.01,5.92-2.92,2.4-2.67,5.9-.61,9.91-10.32,4.93-21.07,5.59-31.42,1.53-11.9-4.67-20.48-13.39-24.2-25.86-1.58-5.31-2.27-11.07-2.28-16.63-.17-48.5-.34-97,.07-145.49.11-13.79-4.5-24.92-14.07-34.78Z"/><path class="l" d="M347.72,86.78c.49-.09,1.15.06,1.82.53-.55.11-1.09-.09-1.82-.53Z"/><path class="t" d="M128.34,1.54c.22.02-.07.39-.07.39,0,0-.43-.08-.5-.22-.07-.14.36-.19.57-.17Z"/><path class="l" d="M355.09,88.06c-.12.45-.4.72-.7.98,0,0-.21-.22-.33-.34.28-.27.57-.54,1.02-.64Z"/></svg>